<svg width="364" height="197" viewBox="0 0 364 197" fill="none" xmlns="http://www.w3.org/2000/svg"><path d="M174 35.8c0-30.4.1-31.9 2-33.8a7 7 0 0 1 4-2c1.1 0 2.9 1.2 4.1 2.8 2 2.6 2 3.7 1.7 34-.3 30-.4 31.4-2.3 32.8a8 8 0 0 1-4 1.4c-1.1 0-2.8-.8-3.8-1.8-1.6-1.6-1.8-4.3-1.7-33.4ZM247.8 52.9l15.8-27.6v-.1c1-1.5 2.4-2.2 4.4-2.2 1.7 0 3.7.7 4.5 1.5.8.8 1.5 2.4 1.5 3.5s-6.1 12.7-13.6 25.8a1585 1585 0 0 1-16 27.4c-2 3.2-2.9 3.8-5.9 3.8-2.5 0-3.8-.6-4.5-2a6.7 6.7 0 0 1-.8-3.4c.2-.8 6.7-12.8 14.6-26.7ZM86 30.6c0-.8.9-2.4 2-3.5s2.8-2 3.8-2c.9 0 2.4.5 3.3 1.2.9.7 8.4 13.1 16.8 27.5A272 272 0 0 1 127 82.3c0 1.3-.8 3.1-1.8 4.1-.9 1-2.6 1.8-3.7 1.8s-2.7-.8-3.6-1.8c-.9-1-4.1-6.1-7.1-11.3L95.6 48.9C90.3 39.6 86 31.4 86 30.6ZM303.5 103c12.6-7.3 24.6-14.1 26.5-15.1 1.9-1 3.7-1.8 4-1.8.3 0 1.5.7 2.8 1.5a5 5 0 0 1 2.2 4.3c.1 1.5-.7 3.4-1.7 4.4-1 .9-13.3 8.2-27.3 16.3-14 8.1-26.4 14.8-27.5 14.8a7 7 0 0 1-3.8-1.3c-1-.8-1.8-2.6-1.8-4s.8-3.2 1.8-4.2c1-.9 12.2-7.6 24.8-14.9ZM23.2 97c-.1-1.9.3-4 .9-4.6.6-.7 2.3-1.3 3.8-1.3a202 202 0 0 1 28.2 14.7 711.7 711.7 0 0 1 27.3 16.3 6 6 0 0 1 1.6 4.3 5 5 0 0 1-2.3 4.2 9.4 9.4 0 0 1-3.2 1.5c-.6 0-13.4-7.1-28.5-15.9-26.9-15.5-27.5-16-27.8-19.2ZM157 102.2c3.6-1.1 9.2-2.5 12.5-3a96.5 96.5 0 0 1 34 1.9 92 92 0 0 1 15 5.4c3.8 1.9 9.2 5 12 7a104.6 104.6 0 0 1 19.6 19.1c2 2.8 5.3 8.2 7.2 12 1.9 3.8 4.6 10.4 5.9 14.5 2 6.4 2.3 9.6 2.3 36.5l-166.5.5-.6-4.7a93.5 93.5 0 0 1 2.1-29.3c.8-3 2.5-8 3.7-11 1.2-3 4-8.6 6.2-12.3 2.3-3.8 6.4-9.4 9.2-12.5a89.8 89.8 0 0 1 24.4-18.7c3.6-1.8 9.4-4.2 13-5.4ZM293.8 180.4c-.1-1.4.7-3.5 1.7-4.5 1.7-1.7 4.1-1.8 32.9-1.8 26.1 0 31.5.2 33.3 1.5a5 5 0 0 1 2.3 4.5 5 5 0 0 1-2.3 4.5c-1.8 1.3-7.2 1.5-32.7 1.5-25.5 0-30.9-.2-32.8-1.5a6.2 6.2 0 0 1-2.4-4.2ZM0 184.8c0-.9.9-2.6 2-3.7 1.9-1.9 3.3-2 33.5-2s31.6.1 33.5 2a7 7 0 0 1 2 4c0 1.1-1 2.9-2.2 4-2.2 2-3.2 2.1-34.1 1.8-30.5-.3-31.9-.4-33.3-2.3a7.7 7.7 0 0 1-1.4-3.8Z" fill="#4B4438"/><path d="M153 115.9a64 64 0 0 1 13.5-3.9c3.3-.4 10.3-.8 15.5-.9 5.2 0 12.7.6 16.5 1.4a74.2 74.2 0 0 1 35.1 19.7 73.8 73.8 0 0 1 10.7 13.8c1.3 1.9 3.5 6.9 5 11a105.5 105.5 0 0 1 4.7 24c0 1.5-.9 2.1-3.7 2.6-2.1.3-34.4.5-71.8.5s-68.3-.4-68.7-.8c-.4-.5-.3-4.6.3-9.3.6-4.7 2-11.2 3.1-14.5 1.1-3.3 3.3-8.5 4.9-11.5a79.6 79.6 0 0 1 20.4-23.7 82.4 82.4 0 0 1 14.5-8.4Z" fill="#FFCC80"/></svg>
